<mxfile host="app.diagrams.net" modified="2022-04-03T02:45:25.855Z" agent="5.0 (Windows NT 10.0; Win64; x64) AppleWebKit/537.36 (KHTML, like Gecko) Chrome/97.0.4692.99 Safari/537.36" etag="jWUe8Nkn94cNBeCRYRoK" version="17.4.0" type="github">
  <diagram id="z3YQcYYnwY08yEcVxx5b" name="Page-1">
    <mxGraphModel dx="1234" dy="437" grid="1" gridSize="10" guides="1" tooltips="1" connect="1" arrows="1" fold="1" page="1" pageScale="1" pageWidth="827" pageHeight="1169" math="0" shadow="0">
      <root>
        <mxCell id="0" />
        <mxCell id="1" parent="0" />
        <mxCell id="KDp9jtvBAo7ZOsc-L7Z1-5" value="SignalServer&lt;br&gt;/&lt;br&gt;Manager" style="rounded=0;whiteSpace=wrap;html=1;strokeColor=#0000FF;fillColor=#FFFF00;" parent="1" vertex="1">
          <mxGeometry x="440" y="650" width="90" height="60" as="geometry" />
        </mxCell>
        <mxCell id="KDp9jtvBAo7ZOsc-L7Z1-27" value="" style="edgeStyle=orthogonalEdgeStyle;rounded=0;orthogonalLoop=1;jettySize=auto;html=1;" parent="1" source="KDp9jtvBAo7ZOsc-L7Z1-16" edge="1">
          <mxGeometry relative="1" as="geometry">
            <mxPoint x="470" y="520" as="targetPoint" />
          </mxGeometry>
        </mxCell>
        <mxCell id="KDp9jtvBAo7ZOsc-L7Z1-35" value="" style="edgeStyle=none;rounded=0;orthogonalLoop=1;jettySize=auto;html=1;startArrow=openThin;startFill=0;endArrow=classicThin;endFill=1;strokeColor=default;entryX=0;entryY=0.5;entryDx=0;entryDy=0;" parent="1" source="KDp9jtvBAo7ZOsc-L7Z1-16" target="KDp9jtvBAo7ZOsc-L7Z1-18" edge="1">
          <mxGeometry relative="1" as="geometry">
            <mxPoint x="350" y="390" as="targetPoint" />
            <Array as="points">
              <mxPoint x="350" y="390" />
            </Array>
          </mxGeometry>
        </mxCell>
        <mxCell id="cD452Ek4mxL8XAYer4Ev-3" style="edgeStyle=orthogonalEdgeStyle;rounded=0;orthogonalLoop=1;jettySize=auto;html=1;entryX=0;entryY=0.5;entryDx=0;entryDy=0;startArrow=classic;startFill=1;" edge="1" parent="1" source="KDp9jtvBAo7ZOsc-L7Z1-16" target="KDp9jtvBAo7ZOsc-L7Z1-5">
          <mxGeometry relative="1" as="geometry">
            <Array as="points">
              <mxPoint x="350" y="680" />
            </Array>
          </mxGeometry>
        </mxCell>
        <mxCell id="KDp9jtvBAo7ZOsc-L7Z1-16" value="Root&lt;br&gt;MediaSFU" style="whiteSpace=wrap;html=1;aspect=fixed;fillColor=#3399FF;" parent="1" vertex="1">
          <mxGeometry x="310" y="480" width="80" height="80" as="geometry" />
        </mxCell>
        <mxCell id="KDp9jtvBAo7ZOsc-L7Z1-61" style="edgeStyle=none;rounded=0;orthogonalLoop=1;jettySize=auto;html=1;entryX=1;entryY=0.5;entryDx=0;entryDy=0;fontSize=14;startArrow=openThin;startFill=0;endArrow=classicThin;endFill=1;strokeColor=default;" parent="1" source="KDp9jtvBAo7ZOsc-L7Z1-17" target="KDp9jtvBAo7ZOsc-L7Z1-18" edge="1">
          <mxGeometry relative="1" as="geometry" />
        </mxCell>
        <mxCell id="KDp9jtvBAo7ZOsc-L7Z1-63" style="edgeStyle=none;rounded=0;orthogonalLoop=1;jettySize=auto;html=1;entryX=0.5;entryY=1;entryDx=0;entryDy=0;fontSize=14;startArrow=openThin;startFill=0;endArrow=classicThin;endFill=1;strokeColor=default;" parent="1" source="KDp9jtvBAo7ZOsc-L7Z1-17" target="KDp9jtvBAo7ZOsc-L7Z1-5" edge="1">
          <mxGeometry relative="1" as="geometry">
            <Array as="points">
              <mxPoint x="770" y="390" />
              <mxPoint x="770" y="770" />
              <mxPoint x="485" y="770" />
            </Array>
          </mxGeometry>
        </mxCell>
        <mxCell id="KDp9jtvBAo7ZOsc-L7Z1-17" value="GateWay" style="rounded=1;whiteSpace=wrap;html=1;fillColor=#FFF4C3;" parent="1" vertex="1">
          <mxGeometry x="615" y="360" width="120" height="60" as="geometry" />
        </mxCell>
        <mxCell id="KDp9jtvBAo7ZOsc-L7Z1-25" value="" style="rounded=0;orthogonalLoop=1;jettySize=auto;html=1;endArrow=classicThin;endFill=1;strokeColor=default;startArrow=openThin;startFill=0;" parent="1" source="KDp9jtvBAo7ZOsc-L7Z1-1" target="KDp9jtvBAo7ZOsc-L7Z1-16" edge="1">
          <mxGeometry relative="1" as="geometry" />
        </mxCell>
        <mxCell id="KDp9jtvBAo7ZOsc-L7Z1-32" value="" style="edgeStyle=none;rounded=0;orthogonalLoop=1;jettySize=auto;html=1;startArrow=openThin;startFill=0;endArrow=classicThin;endFill=1;strokeColor=default;" parent="1" source="KDp9jtvBAo7ZOsc-L7Z1-1" target="KDp9jtvBAo7ZOsc-L7Z1-31" edge="1">
          <mxGeometry relative="1" as="geometry" />
        </mxCell>
        <mxCell id="cD452Ek4mxL8XAYer4Ev-1" style="edgeStyle=orthogonalEdgeStyle;rounded=0;orthogonalLoop=1;jettySize=auto;html=1;startArrow=classic;startFill=1;" edge="1" parent="1" source="KDp9jtvBAo7ZOsc-L7Z1-1" target="KDp9jtvBAo7ZOsc-L7Z1-5">
          <mxGeometry relative="1" as="geometry">
            <Array as="points">
              <mxPoint x="490" y="630" />
              <mxPoint x="490" y="630" />
            </Array>
          </mxGeometry>
        </mxCell>
        <mxCell id="KDp9jtvBAo7ZOsc-L7Z1-1" value="MediaSFU" style="whiteSpace=wrap;html=1;aspect=fixed;fillColor=#FFD966;" parent="1" vertex="1">
          <mxGeometry x="450" y="480" width="80" height="80" as="geometry" />
        </mxCell>
        <mxCell id="KDp9jtvBAo7ZOsc-L7Z1-18" value="MediaSFU" style="whiteSpace=wrap;html=1;aspect=fixed;fillColor=#FFD966;" parent="1" vertex="1">
          <mxGeometry x="450" y="350" width="80" height="80" as="geometry" />
        </mxCell>
        <mxCell id="KDp9jtvBAo7ZOsc-L7Z1-37" value="" style="edgeStyle=none;rounded=0;orthogonalLoop=1;jettySize=auto;html=1;startArrow=openThin;startFill=0;endArrow=classicThin;endFill=1;strokeColor=default;entryX=0.14;entryY=-0.003;entryDx=0;entryDy=0;entryPerimeter=0;" parent="1" source="KDp9jtvBAo7ZOsc-L7Z1-15" target="KDp9jtvBAo7ZOsc-L7Z1-16" edge="1">
          <mxGeometry relative="1" as="geometry">
            <mxPoint x="370" y="270" as="targetPoint" />
            <Array as="points">
              <mxPoint x="321" y="270" />
            </Array>
          </mxGeometry>
        </mxCell>
        <mxCell id="KDp9jtvBAo7ZOsc-L7Z1-15" value="MediaSFU" style="whiteSpace=wrap;html=1;aspect=fixed;fillColor=#FFD966;" parent="1" vertex="1">
          <mxGeometry x="450" y="230" width="80" height="80" as="geometry" />
        </mxCell>
        <mxCell id="KDp9jtvBAo7ZOsc-L7Z1-30" value="media" style="text;html=1;align=center;verticalAlign=middle;resizable=0;points=[];autosize=1;strokeColor=none;fillColor=none;" parent="1" vertex="1">
          <mxGeometry x="395" y="500" width="50" height="20" as="geometry" />
        </mxCell>
        <mxCell id="KDp9jtvBAo7ZOsc-L7Z1-41" value="" style="edgeStyle=none;rounded=0;orthogonalLoop=1;jettySize=auto;html=1;startArrow=openThin;startFill=0;endArrow=classicThin;endFill=1;strokeColor=default;entryX=1;entryY=0.75;entryDx=0;entryDy=0;" parent="1" source="KDp9jtvBAo7ZOsc-L7Z1-31" target="KDp9jtvBAo7ZOsc-L7Z1-5" edge="1">
          <mxGeometry relative="1" as="geometry">
            <mxPoint x="625" y="630" as="targetPoint" />
            <Array as="points">
              <mxPoint x="675" y="695" />
            </Array>
          </mxGeometry>
        </mxCell>
        <mxCell id="KDp9jtvBAo7ZOsc-L7Z1-31" value="App" style="ellipse;whiteSpace=wrap;html=1;fillColor=#D5E8D4;" parent="1" vertex="1">
          <mxGeometry x="640" y="490" width="70" height="60" as="geometry" />
        </mxCell>
        <mxCell id="KDp9jtvBAo7ZOsc-L7Z1-33" value="media" style="text;html=1;align=center;verticalAlign=middle;resizable=0;points=[];autosize=1;strokeColor=none;fillColor=none;" parent="1" vertex="1">
          <mxGeometry x="560" y="500" width="50" height="20" as="geometry" />
        </mxCell>
        <mxCell id="KDp9jtvBAo7ZOsc-L7Z1-38" value="media" style="text;html=1;align=center;verticalAlign=middle;resizable=0;points=[];autosize=1;strokeColor=none;fillColor=none;" parent="1" vertex="1">
          <mxGeometry x="355" y="250" width="50" height="20" as="geometry" />
        </mxCell>
        <mxCell id="KDp9jtvBAo7ZOsc-L7Z1-39" value="media" style="text;html=1;align=center;verticalAlign=middle;resizable=0;points=[];autosize=1;strokeColor=none;fillColor=none;" parent="1" vertex="1">
          <mxGeometry x="375" y="370" width="50" height="20" as="geometry" />
        </mxCell>
        <mxCell id="KDp9jtvBAo7ZOsc-L7Z1-42" value="join/call signal" style="text;html=1;align=center;verticalAlign=middle;resizable=0;points=[];autosize=1;strokeColor=none;fillColor=none;" parent="1" vertex="1">
          <mxGeometry x="560" y="670" width="90" height="20" as="geometry" />
        </mxCell>
        <mxCell id="KDp9jtvBAo7ZOsc-L7Z1-62" value="media" style="text;html=1;align=center;verticalAlign=middle;resizable=0;points=[];autosize=1;strokeColor=none;fillColor=none;fontSize=14;" parent="1" vertex="1">
          <mxGeometry x="535" y="370" width="50" height="20" as="geometry" />
        </mxCell>
        <mxCell id="KDp9jtvBAo7ZOsc-L7Z1-64" value="join/signal" style="text;html=1;align=center;verticalAlign=middle;resizable=0;points=[];autosize=1;strokeColor=none;fillColor=none;fontSize=14;" parent="1" vertex="1">
          <mxGeometry x="530" y="750" width="80" height="20" as="geometry" />
        </mxCell>
        <mxCell id="cD452Ek4mxL8XAYer4Ev-2" value="signal" style="text;html=1;align=center;verticalAlign=middle;resizable=0;points=[];autosize=1;strokeColor=none;fillColor=none;" vertex="1" parent="1">
          <mxGeometry x="485" y="590" width="50" height="20" as="geometry" />
        </mxCell>
        <mxCell id="cD452Ek4mxL8XAYer4Ev-4" value="signal" style="text;html=1;align=center;verticalAlign=middle;resizable=0;points=[];autosize=1;strokeColor=none;fillColor=none;" vertex="1" parent="1">
          <mxGeometry x="355" y="660" width="50" height="20" as="geometry" />
        </mxCell>
      </root>
    </mxGraphModel>
  </diagram>
</mxfile>
